<?xml version="1.0" encoding="UTF-8"?>
<svg version="1.1" xmlns="http://www.w3.org/2000/svg" width="16" height="16">
<path d="M0 0 C4.0743356 0.84881992 5.54405875 2.30225596 8 5.625 C8.625 8.625 8.625 8.625 8 11.625 C5.54405875 14.94774404 4.0743356 16.40118008 0 17.25 C-4.0743356 16.40118008 -5.54405875 14.94774404 -8 11.625 C-8.625 8.625 -8.625 8.625 -8 5.625 C-5.54405875 2.30225596 -4.0743356 0.84881992 0 0 Z M-5 3.625 C-4.67 4.285 -4.34 4.945 -4 5.625 C-3.67 4.965 -3.34 4.305 -3 3.625 C-3.66 3.625 -4.32 3.625 -5 3.625 Z M-1 3.625 C-1.33 4.285 -1.66 4.945 -2 5.625 C-1.01 5.295 -0.02 4.965 1 4.625 C0.34 4.295 -0.32 3.965 -1 3.625 Z M4 3.625 C5 5.625 5 5.625 5 5.625 Z M-3 5.625 C-4.41577477 6.80924326 -4.41577477 6.80924326 -4.0625 10.1875 C-4.041875 11.321875 -4.02125 12.45625 -4 13.625 C-3.01 13.955 -2.02 14.285 -1 14.625 C-1.33 11.655 -1.66 8.685 -2 5.625 C-2.33 5.625 -2.66 5.625 -3 5.625 Z M2 6.625 C1.3121764 8.97867713 1.3121764 8.97867713 1 11.625 C1.99 13.11 1.99 13.11 3 14.625 C4.35618499 13.49965895 4.35618499 13.49965895 4.0625 10.5625 C4.041875 9.593125 4.02125 8.62375 4 7.625 C3.34 7.295 2.68 6.965 2 6.625 Z M-6 8.625 C-5 11.625 -5 11.625 -5 11.625 Z M5 8.625 C6 11.625 6 11.625 6 11.625 Z " fill="#033A64" transform="translate(8,-0.625)"/>
<path d="M0 0 C1.32 0 2.64 0 4 0 C3.938125 0.9075 3.87625 1.815 3.8125 2.75 C4.01672076 6.28982642 4.64551835 7.44931155 7 10 C4.29120665 11.35439668 1.99066732 11.06501451 -1 11 C-1 10.01 -1 9.02 -1 8 C-0.34 8.33 0.32 8.66 1 9 C0.67 6.03 0.34 3.06 0 0 Z " fill="#02325F" transform="translate(6,5)"/>
<path d="M0 0 C0.721875 0.268125 1.44375 0.53625 2.1875 0.8125 C3.81700412 4.93418689 4.45014601 7.51950357 3.1875 11.8125 C2.8575 11.8125 2.5275 11.8125 2.1875 11.8125 C1.7853125 10.141875 1.7853125 10.141875 1.375 8.4375 C0.52940981 4.59409049 0.52940981 4.59409049 -2.8125 2.8125 C-5.57473278 5.57473278 -5.39106291 8.01956617 -5.8125 11.8125 C-6.1425 11.8125 -6.4725 11.8125 -6.8125 11.8125 C-7.625 8.625 -7.625 8.625 -7.8125 4.8125 C-4.20507294 -0.2803382 -4.20507294 -0.2803382 0 0 Z " fill="#05C5FE" transform="translate(9.8125,1.1875)"/>
</svg>
