<?xml version="1.0" encoding="UTF-8"?>
<svg version="1.1" xmlns="http://www.w3.org/2000/svg" width="48" height="48">
<path d="M0 0 C6.42438474 5.43786873 9.50500427 11.61575209 10.4375 19.875 C10.08968578 26.95649743 7.43249102 33.10186862 2.25 37.9375 C-3.18311791 42.2035037 -8.81576104 44.68598914 -15.86328125 44.33984375 C-23.39851807 43.14136916 -28.88003067 40.14394679 -33.59375 34.140625 C-37.27157496 28.54215812 -39.07272768 22.74462114 -38 16 C-36.07909371 8.32845603 -32.61339872 3.3445685 -26 -1 C-17.23070588 -5.75853169 -8.50658873 -4.93215894 0 0 Z M-26 3 C-26 3.66 -26 4.32 -26 5 C-26.99 5.33 -27.98 5.66 -29 6 C-29 6.66 -29 7.32 -29 8 C-29.66 8 -30.32 8 -31 8 C-33.46893435 12.40114384 -34.91680309 15.92498837 -35 21 C-33.90881473 24.77325746 -32.52432297 28.38218625 -31 32 C-30.34 32 -29.68 32 -29 32 C-29 27.71 -29 23.42 -29 19 C-29.99 19 -30.98 19 -32 19 C-32 17.68 -32 16.36 -32 15 C-31.46890625 14.79632813 -30.9378125 14.59265625 -30.390625 14.3828125 C-26.97125896 12.40494391 -24.48662079 9.69673101 -21.75 6.875 C-21.19570313 6.31167969 -20.64140625 5.74835937 -20.0703125 5.16796875 C-18.70895515 3.78313972 -17.35385141 2.39216796 -16 1 C-20.23286647 -0.38948443 -22.17344289 0.82581983 -26 3 Z M-12 0 C-10.35830472 2.02054804 -8.69088222 4.02043058 -7 6 C-6.67 6 -6.34 6 -6 6 C-6 4.35 -6 2.7 -6 1 C-8.97 0.505 -8.97 0.505 -12 0 Z M-3 3 C-3.6103518 7.62592965 -3.6103518 7.62592965 -1.69921875 11.6953125 C-0.63218199 12.70887009 0.46385683 13.69298589 1.58984375 14.640625 C3 16 3 16 4 19 C3.01 19 2.02 19 1 19 C1 23.29 1 27.58 1 32 C1.66 32 2.32 32 3 32 C6.17219711 24.86911064 7.81598364 20.42395686 5 13 C4.62875 12.01 4.2575 11.02 3.875 10 C3.58625 9.34 3.2975 8.68 3 8 C2.34 8 1.68 8 1 8 C0.67 7.01 0.34 6.02 0 5 C-0.66 5 -1.32 5 -2 5 C-2.33 4.34 -2.66 3.68 -3 3 Z M-15 4 C-20.23984723 7.55561062 -25.26168338 11.20185573 -26.52099609 17.68017578 C-26.97936421 24.13258856 -26.60858541 30.56772036 -26 37 C-21.18790099 39.29045014 -21.18790099 39.29045014 -16 40 C-15.91910458 37.22858283 -15.85955938 34.45952181 -15.8125 31.6875 C-15.78736328 30.90181641 -15.76222656 30.11613281 -15.73632812 29.30664062 C-15.72666016 28.54931641 -15.71699219 27.79199219 -15.70703125 27.01171875 C-15.6913208 26.31522217 -15.67561035 25.61872559 -15.65942383 24.90112305 C-16.09930342 22.44568049 -17.2156257 21.6752631 -19 20 C-19.3125 17.4375 -19.3125 17.4375 -19 15 C-17 13 -17 13 -14.0625 12.8125 C-11 13 -11 13 -8 14 C-8.28151087 15.31471568 -8.57553339 16.62675767 -8.875 17.9375 C-9.03742187 18.66839844 -9.19984375 19.39929688 -9.3671875 20.15234375 C-10 22 -10 22 -12 23 C-12 25.64 -12 28.28 -12 31 C-10.68 31 -9.36 31 -8 31 C-8 31.99 -8 32.98 -8 34 C-9.32 34.33 -10.64 34.66 -12 35 C-10.68 35 -9.36 35 -8 35 C-8 35.99 -8 36.98 -8 38 C-9.32 38 -10.64 38 -12 38 C-12 38.66 -12 39.32 -12 40 C-8.43476181 39.38881631 -5.33726069 38.37977501 -2 37 C-1.79511543 33.48003799 -1.67186158 29.96162121 -1.5625 26.4375 C-1.50384766 25.44685547 -1.44519531 24.45621094 -1.38476562 23.43554688 C-1.23264932 17.76911658 -1.23264932 17.76911658 -3.51904297 12.72314453 C-5.26488961 10.9266018 -6.90956047 9.37940973 -9 8 C-9.66 8 -10.32 8 -11 8 C-11.33 7.01 -11.66 6.02 -12 5 C-12.99 4.67 -13.98 4.34 -15 4 Z M-15 15 C-15.99 16.485 -15.99 16.485 -17 18 C-16.34 18.66 -15.68 19.32 -15 20 C-12.89179203 19.6814823 -12.89179203 19.6814823 -11 19 C-11.66 17.68 -12.32 16.36 -13 15 C-13.66 15 -14.32 15 -15 15 Z " fill="#0B3862" transform="translate(38,4)"/>
<path d="M0 0 C4 0 4 0 5.484375 1.3125 C6.65625 2.875 7.828125 4.4375 9 6 C9.33 4.68 9.66 3.36 10 2 C10.99 2.33 11.98 2.66 13 3 C13.04125 4.19625 13.0825 5.3925 13.125 6.625 C13.7162872 11.76465026 16.28512792 13.60128725 20 17 C20 17.99 20 18.98 20 20 C19.01 20 18.02 20 17 20 C17 25.28 17 30.56 17 36 C15.515 36.495 15.515 36.495 14 37 C14.01160156 36.40050537 14.02320312 35.80101074 14.03515625 35.18334961 C14.6139669 23.72173578 14.6139669 23.72173578 11.2578125 13.15234375 C9.24364195 11.47386829 7.29940211 10.2436455 5 9 C3.96842158 8.03260868 2.95698085 7.04124332 2 6 C0.91481889 6.91447846 -0.16804738 7.83170407 -1.25 8.75 C-1.85328125 9.26046875 -2.4565625 9.7709375 -3.078125 10.296875 C-3.71234375 10.85890625 -4.3465625 11.4209375 -5 12 C-5.721875 12.5053125 -6.44375 13.010625 -7.1875 13.53125 C-10.13158775 17.54130056 -9.6789753 21.90095003 -9.75 26.75 C-9.77964844 27.73355469 -9.80929688 28.71710937 -9.83984375 29.73046875 C-9.91042411 32.15372776 -9.96317701 34.57603154 -10 37 C-10.99 36.67 -11.98 36.34 -13 36 C-13 30.72 -13 25.44 -13 20 C-13.99 20 -14.98 20 -16 20 C-16 16 -16 16 -14.49609375 14.32421875 C-13.81675781 13.78410156 -13.13742188 13.24398438 -12.4375 12.6875 C-9.52625056 10.28390615 -6.73852207 7.85241824 -4.0625 5.1875 C-3.49660156 4.62417969 -2.93070313 4.06085937 -2.34765625 3.48046875 C-0.89834828 2.02284428 -0.89834828 2.02284428 0 0 Z " fill="#0DBFFE" transform="translate(22,3)"/>
<path d="M0 0 C0.66 0.66 1.32 1.32 2 2 C-1.465 4.97 -1.465 4.97 -5 8 C-5.33 6.68 -5.66 5.36 -6 4 C-4.02 2.68 -2.04 1.36 0 0 Z " fill="#073577" transform="translate(42,36)"/>
</svg>
