<?xml version="1.0" encoding="UTF-8"?>
<svg version="1.1" xmlns="http://www.w3.org/2000/svg" width="32" height="32">
<path d="M0 0 C3.97317813 3.60358017 6.46864633 7.28280442 6.84765625 12.74609375 C6.49203004 17.88966314 5.21317085 21.55022188 1.6875 25.4375 C-2.31173843 28.42335674 -5.92572779 29.78401376 -10.9375 29.4375 C-15.90083936 28.55759646 -19.51142112 26.84985414 -22.6015625 22.7109375 C-25.21194842 18.25374793 -25.81069087 14.62268343 -24.91015625 9.54296875 C-23.49583116 4.56047708 -21.02295241 1.57569324 -16.625 -1 C-10.72901435 -3.62409789 -5.69618724 -2.68688077 0 0 Z M-19.71484375 4.59765625 C-22.30851321 7.58449809 -23.3125 10.48847165 -23.3125 14.4375 C-22.59891339 17.05893971 -21.62073653 19.0222941 -20.3125 21.4375 C-19.9825 21.4375 -19.6525 21.4375 -19.3125 21.4375 C-19.3125 18.4675 -19.3125 15.4975 -19.3125 12.4375 C-19.9725 12.4375 -20.6325 12.4375 -21.3125 12.4375 C-20.60673828 11.64085937 -20.60673828 11.64085937 -19.88671875 10.828125 C-19.26410156 10.12171875 -18.64148438 9.4153125 -18 8.6875 C-17.07767578 7.64335937 -17.07767578 7.64335937 -16.13671875 6.578125 C-14.43935266 4.58635494 -12.85772191 2.54851085 -11.3125 0.4375 C-15.36189504 0.4375 -16.7870437 1.95579846 -19.71484375 4.59765625 Z M-7.3125 0.4375 C-6.3225 1.4275 -5.3325 2.4175 -4.3125 3.4375 C-4.3125 2.4475 -4.3125 1.4575 -4.3125 0.4375 C-5.3025 0.4375 -6.2925 0.4375 -7.3125 0.4375 Z M-2.3125 2.4375 C-1.80951212 6.83864397 -0.22477269 9.14945019 2.6875 12.4375 C2.0275 12.4375 1.3675 12.4375 0.6875 12.4375 C0.6875 15.4075 0.6875 18.3775 0.6875 21.4375 C4.05902003 18.06597997 4.50892723 17.08039204 4.6875 12.4375 C3.21438695 7.86309632 1.89875114 4.90616446 -2.3125 2.4375 Z M-15.8125 7.11328125 C-18.96720993 12.00143856 -18.22737337 18.89522365 -17.3125 24.4375 C-14.35872502 26.80730013 -14.35872502 26.80730013 -10.3125 26.4375 C-10.25858007 24.64616022 -10.21974429 22.85436101 -10.1875 21.0625 C-10.16429687 20.06476562 -10.14109375 19.06703125 -10.1171875 18.0390625 C-10.04033152 15.27487827 -10.04033152 15.27487827 -12.3125 13.4375 C-12.4375 10.8125 -12.4375 10.8125 -12.3125 8.4375 C-9.3425 8.9325 -9.3425 8.9325 -6.3125 9.4375 C-6.3125 11.4175 -6.3125 13.3975 -6.3125 15.4375 C-6.9725 15.4375 -7.6325 15.4375 -8.3125 15.4375 C-8.3125 17.0875 -8.3125 18.7375 -8.3125 20.4375 C-7.3225 20.4375 -6.3325 20.4375 -5.3125 20.4375 C-5.3125 21.0975 -5.3125 21.7575 -5.3125 22.4375 C-6.3025 22.7675 -7.2925 23.0975 -8.3125 23.4375 C-7.3225 23.4375 -6.3325 23.4375 -5.3125 23.4375 C-5.3125 24.0975 -5.3125 24.7575 -5.3125 25.4375 C-6.3025 25.7675 -7.2925 26.0975 -8.3125 26.4375 C-4.49436553 26.16209296 -4.49436553 26.16209296 -1.3125 24.4375 C-0.24429542 15.88850609 -0.24429542 15.88850609 -2.8046875 7.953125 C-4.56189431 6.18862687 -6.17943137 4.72120194 -8.3125 3.4375 C-11.57315871 3.4375 -13.39606964 5.03414429 -15.8125 7.11328125 Z M-10.3125 10.4375 C-10.3125 11.4275 -10.3125 12.4175 -10.3125 13.4375 C-9.3225 13.1075 -8.3325 12.7775 -7.3125 12.4375 C-7.6425 11.7775 -7.9725 11.1175 -8.3125 10.4375 C-8.9725 10.4375 -9.6325 10.4375 -10.3125 10.4375 Z " fill="#083863" transform="translate(25.3125,2.5625)"/>
<path d="M0 0 C3.875 1.875 3.875 1.875 5 3 C5.66 2.34 6.32 1.68 7 1 C7.433125 2.093125 7.86625 3.18625 8.3125 4.3125 C9.50873916 7.13790298 10.70733935 8.92568798 13 11 C13 11.66 13 12.32 13 13 C12.34 13 11.68 13 11 13 C11 16.63 11 20.26 11 24 C10.34 24.33 9.68 24.66 9 25 C8.99613281 23.58847656 8.99613281 23.58847656 8.9921875 22.1484375 C9.03609637 13.87803027 9.03609637 13.87803027 4.9375 7.125 C3.4834375 6.073125 3.4834375 6.073125 2 5 C0.64791086 5.62775567 -0.68163705 6.30419733 -2 7 C-2.6909375 7.3609375 -3.381875 7.721875 -4.09375 8.09375 C-6.90881128 10.90881128 -6.67245524 13.91247998 -6.75 17.6875 C-6.77964844 18.38939453 -6.80929688 19.09128906 -6.83984375 19.81445312 C-6.91037033 21.54235424 -6.95747068 23.2711832 -7 25 C-7.66 24.67 -8.32 24.34 -9 24 C-9 20.37 -9 16.74 -9 13 C-9.66 13 -10.32 13 -11 13 C-9.46356148 9.31930113 -7.21849055 7.01224796 -4.375 4.25 C-3.55773437 3.45078125 -2.74046875 2.6515625 -1.8984375 1.828125 C-0.95871094 0.92320313 -0.95871094 0.92320313 0 0 Z " fill="#07C1FE" transform="translate(15,2)"/>
</svg>
